<?xml version="1.0" standalone="no"?>
<!DOCTYPE svg PUBLIC "-//W3C//DTD SVG 20010904//EN"
 "http://www.w3.org/TR/2001/REC-SVG-20010904/DTD/svg10.dtd">
<svg version="1.0" xmlns="http://www.w3.org/2000/svg"
 width="40.000000pt" height="40.000000pt" viewBox="0 0 40.000000 40.000000"
 preserveAspectRatio="xMidYMid meet">

<g transform="translate(0.000000,40.000000) scale(0.100000,-0.100000)"
fill="#000000" stroke="none">
<path d="M0 333 l0 -68 25 42 c14 23 45 54 68 68 l42 25 -67 0 -68 0 0 -67z"/>
<path d="M306 375 c40 -24 74 -63 74 -85 0 -5 -11 -10 -24 -10 -29 0 -56 -24
-56 -49 0 -21 30 -51 52 -51 34 0 46 32 47 128 l1 92 -67 0 -68 0 41 -25z"/>
<path d="M0 68 l0 -68 68 0 67 0 -42 25 c-23 14 -54 45 -68 68 l-25 42 0 -67z"/>
<path d="M375 93 c-11 -20 -40 -49 -64 -65 l-45 -28 67 0 67 0 0 65 c0 36 -1
65 -3 65 -1 0 -11 -17 -22 -37z"/>
</g>
</svg>
