<?xml version="1.0" standalone="no"?>
<!DOCTYPE svg PUBLIC "-//W3C//DTD SVG 20010904//EN"
 "http://www.w3.org/TR/2001/REC-SVG-20010904/DTD/svg10.dtd">
<svg version="1.0" xmlns="http://www.w3.org/2000/svg"
 width="40.000000pt" height="40.000000pt" viewBox="0 0 40.000000 40.000000"
 preserveAspectRatio="xMidYMid meet">
<metadata>
Created by potrace 1.10, written by Peter Selinger 2001-2011
</metadata>
<g transform="translate(0.000000,40.000000) scale(0.100000,-0.100000)"
fill="#000000" stroke="none">
<path d="M280 376 c0 -2 18 -23 40 -45 22 -22 40 -42 40 -45 0 -2 -11 -7 -25
-10 -14 -4 -25 -11 -25 -16 0 -6 -4 -10 -10 -10 -5 0 -10 7 -10 15 0 15 -48
45 -72 45 -7 0 3 -8 22 -19 22 -11 43 -34 55 -60 25 -51 57 -63 88 -32 19 19
20 24 8 58 -19 53 -48 91 -82 108 -16 9 -29 14 -29 11z m90 -131 c22 -26 -12
-49 -37 -24 -9 9 -8 15 0 25 15 17 22 17 37 -1z"/>
<path d="M46 323 c-25 -27 -43 -79 -32 -90 3 -4 9 8 12 26 l7 32 19 -21 c10
-11 26 -20 35 -20 11 0 13 -4 5 -12 -11 -14 -8 -66 5 -79 5 -5 7 9 5 31 -3 28
2 47 17 69 25 35 26 54 5 75 -23 23 -50 20 -78 -11z m67 -17 c8 -19 -16 -38
-37 -30 -16 6 -21 25 -9 37 12 12 41 7 46 -7z"/>
<path d="M260 120 c-16 -13 -41 -20 -71 -20 -71 0 -105 -51 -57 -84 28 -20 34
-14 14 17 -15 22 -15 26 -1 37 23 19 48 -6 40 -39 -6 -22 -5 -23 10 -11 11 9
15 23 11 41 -4 22 -2 27 12 26 19 -1 72 31 72 44 0 12 -1 12 -30 -11z"/>
<path d="M310 56 c-19 -13 -38 -22 -42 -19 -5 2 -8 0 -8 -6 0 -5 -8 -12 -17
-14 -17 -4 -17 -5 0 -6 24 -1 67 22 91 48 24 26 20 26 -24 -3z"/>
</g>
</svg>
